<?xml version="1.0" standalone="no"?>
<!DOCTYPE svg PUBLIC "-//W3C//DTD SVG 20010904//EN"
 "http://www.w3.org/TR/2001/REC-SVG-20010904/DTD/svg10.dtd">
<svg version="1.0" xmlns="http://www.w3.org/2000/svg"
 width="1200.000000pt" height="1200.000000pt" viewBox="0 0 1200.000000 1200.000000"
 preserveAspectRatio="xMidYMid meet">

<g transform="translate(0.000000,1200.000000) scale(0.100000,-0.100000)"
fill="#000000" stroke="none">
<path d="M8208 9036 c-103 -37 -201 -128 -251 -234 -26 -57 -29 -71 -25 -133
5 -69 5 -71 -21 -80 -109 -42 -298 -49 -409 -14 l-53 16 43 42 c79 76 88 182
21 245 -29 27 -42 32 -84 32 -127 0 -198 -109 -152 -235 l20 -53 -74 -11
c-155 -23 -267 -9 -320 41 -39 37 -25 88 24 88 28 0 45 29 32 53 -18 31 -76
22 -115 -17 -29 -29 -34 -41 -34 -81 0 -43 4 -52 43 -90 29 -30 59 -48 96 -59
70 -20 200 -21 318 0 88 15 93 15 131 -5 72 -37 181 -61 275 -61 90 0 216 21
276 46 32 13 37 12 90 -13 46 -23 69 -28 131 -28 99 0 164 31 331 158 310 235
495 317 719 317 170 0 290 -45 389 -143 76 -76 114 -160 119 -267 3 -68 0 -95
-16 -138 -22 -57 -21 -77 5 -86 43 -17 86 90 85 210 -1 125 -52 242 -147 337
-105 105 -249 157 -434 157 -240 -1 -427 -79 -734 -309 -185 -139 -239 -166
-324 -166 -96 0 -96 14 0 73 96 58 196 152 227 211 67 133 -39 248 -182 197z
m110 -72 c44 -30 21 -96 -60 -175 -74 -71 -227 -167 -248 -154 -17 10 -11 88
11 134 39 88 122 167 206 197 50 17 64 17 91 -2z m-850 -136 c18 -18 14 -89
-7 -124 -23 -39 -74 -62 -96 -44 -20 17 -35 76 -28 111 3 16 17 38 31 49 28
22 82 26 100 8z"/>
<path d="M2330 8790 c0 -5 14 -10 30 -10 17 0 30 -5 30 -12 0 -12 -84 -341
-101 -395 -9 -29 -15 -33 -45 -33 -19 0 -34 -4 -34 -10 0 -6 71 -10 193 -10
l194 0 26 87 c15 47 25 88 22 91 -6 6 -3 11 -39 -62 -41 -80 -69 -96 -173 -96
-97 0 -93 -8 -60 125 l23 90 46 3 c39 3 49 0 58 -19 7 -12 9 -34 6 -50 -3 -16
-2 -29 3 -29 8 0 42 111 57 189 5 25 4 32 -4 27 -7 -4 -12 -16 -12 -27 0 -37
-44 -69 -95 -69 -29 0 -45 4 -45 13 0 6 11 50 24 97 l23 85 69 3 c38 2 78 1
90 -2 26 -7 44 -45 44 -93 0 -49 14 -31 28 35 20 89 34 82 -173 82 -117 0
-185 -4 -185 -10z"/>
<path d="M3852 8780 c-64 -39 -93 -128 -54 -163 35 -32 77 -11 70 35 -2 18 -9
23 -31 21 -23 -1 -27 2 -27 24 0 39 53 83 100 83 72 0 100 -71 61 -149 -24
-46 -64 -81 -163 -142 -77 -48 -108 -88 -108 -142 0 -30 17 -44 33 -28 9 9 8
16 -1 31 -14 23 -6 50 16 50 9 0 35 -20 58 -45 53 -58 91 -61 138 -12 32 34
62 107 45 107 -5 0 -9 -5 -9 -10 0 -22 -49 -60 -77 -60 -50 0 -144 33 -141 50
2 8 52 40 112 70 137 70 176 110 176 178 0 38 -5 55 -25 76 -46 49 -117 60
-173 26z"/>
<path d="M4295 8786 c-52 -23 -110 -98 -135 -176 -40 -126 -15 -270 52 -294
44 -16 97 2 148 50 62 58 92 126 98 227 10 167 -53 241 -163 193z m109 -49
c19 -77 -42 -311 -97 -374 -37 -42 -84 -43 -105 -3 -31 59 31 314 95 391 21
25 32 30 62 27 33 -3 37 -7 45 -41z"/>
<path d="M3150 8764 c-6 -14 -10 -29 -10 -33 0 -4 -7 -31 -15 -59 -14 -44 -19
-52 -40 -52 -14 0 -25 -4 -25 -10 0 -5 9 -10 20 -10 25 0 25 6 -7 -120 -28
-113 -27 -154 7 -165 31 -10 59 4 76 38 22 41 35 87 25 87 -4 0 -13 -17 -19
-38 -15 -49 -47 -81 -64 -64 -9 9 -5 40 18 135 l30 122 34 3 c50 5 63 22 17
22 -43 0 -44 2 -18 92 11 36 17 69 13 72 -13 14 -33 4 -42 -20z"/>
<path d="M4771 8761 c-12 -16 -46 -42 -77 -57 -58 -28 -66 -44 -13 -25 18 6
34 9 36 7 3 -3 -55 -231 -83 -328 -4 -13 -16 -18 -44 -18 -21 0 -42 -4 -45
-10 -4 -6 35 -10 109 -10 71 0 116 4 116 10 0 6 -18 10 -40 10 -22 0 -40 1
-40 3 0 1 27 100 59 220 32 120 54 220 50 222 -4 3 -17 -8 -28 -24z"/>
<path d="M5184 8759 c-16 -17 -54 -44 -84 -60 -44 -24 -49 -29 -25 -25 17 2
38 8 47 11 18 7 20 18 -60 -275 l-17 -65 -43 -3 c-23 -2 -42 -7 -42 -13 0 -5
48 -9 110 -9 67 0 110 4 110 10 0 6 -16 10 -35 10 -19 0 -35 4 -35 10 0 5 25
105 56 221 31 116 54 212 52 215 -3 2 -18 -10 -34 -27z"/>
<path d="M2838 8614 c-33 -18 -48 -43 -48 -83 0 -24 10 -39 50 -72 58 -49 68
-71 46 -104 -13 -20 -25 -25 -55 -25 -71 0 -90 22 -55 62 14 14 14 20 4 33
-19 23 -50 1 -50 -36 0 -66 80 -100 150 -64 36 19 50 43 50 88 0 30 -7 40 -55
76 -60 45 -70 74 -37 104 36 33 127 8 94 -25 -17 -17 -15 -45 3 -52 21 -8 47
22 40 48 -10 32 -53 66 -83 66 -15 -1 -39 -7 -54 -16z"/>
<path d="M3300 8370 c-14 -26 3 -60 30 -60 19 0 50 25 50 40 0 15 -31 40 -50
40 -11 0 -24 -9 -30 -20z"/>
<path d="M4610 8135 c0 -24 2 -25 65 -25 62 0 66 -1 76 -27 7 -18 9 -161 7
-413 -3 -379 -3 -386 -26 -428 -33 -62 -73 -84 -144 -79 -64 6 -111 29 -127
65 -17 37 -5 59 45 81 92 41 74 141 -27 141 -23 0 -41 -10 -70 -39 -36 -35
-39 -43 -39 -92 0 -33 8 -69 20 -95 53 -109 224 -147 351 -78 57 32 87 66 121
140 22 48 23 60 28 434 l5 385 68 3 c64 3 67 4 67 27 l0 25 -210 0 -210 0 0
-25z"/>
<path d="M6160 8126 c0 -25 2 -26 60 -26 48 0 61 -4 70 -19 6 -13 10 -171 10
-446 0 -275 -4 -433 -10 -446 -9 -15 -22 -19 -70 -19 -57 0 -60 -1 -60 -25 l0
-25 215 0 215 0 0 25 c0 23 -3 24 -77 27 l-78 3 -3 238 -2 237 90 0 c158 0
185 -33 201 -248 16 -220 49 -282 151 -289 103 -8 146 40 163 180 7 53 6 57
-13 57 -17 0 -20 -8 -24 -55 -7 -86 -58 -124 -94 -70 -9 13 -22 69 -30 122
-28 192 -61 254 -157 299 l-49 22 39 7 c62 10 154 66 188 114 25 36 30 54 33
116 6 119 -35 180 -150 223 -35 14 -96 17 -330 20 l-288 3 0 -25z m535 -46
c59 -29 85 -79 85 -166 0 -74 -21 -135 -58 -167 -36 -33 -93 -46 -194 -47
l-98 0 0 193 c0 107 3 197 7 200 3 4 54 7 112 7 84 0 113 -4 146 -20z"/>
<path d="M2060 8115 c0 -23 3 -24 68 -27 l67 -3 3 -444 c1 -319 -1 -448 -9
-457 -7 -9 -33 -14 -70 -14 -56 0 -59 -1 -59 -25 l0 -25 394 0 395 0 5 53 c3
28 8 116 11 195 5 132 5 142 -12 142 -15 0 -21 -16 -35 -87 -9 -48 -29 -111
-45 -142 -23 -45 -37 -60 -82 -83 -51 -27 -59 -28 -195 -28 -97 0 -146 4 -154
12 -9 9 -12 73 -12 225 l0 213 74 0 c65 0 78 -3 105 -25 30 -26 54 -84 66
-162 4 -27 12 -43 21 -43 12 0 14 42 14 255 0 213 -2 255 -14 255 -9 0 -17
-16 -21 -42 -12 -79 -36 -137 -66 -163 -27 -22 -40 -25 -105 -25 l-74 0 0 198
c0 141 3 201 12 210 16 16 272 16 319 1 43 -15 95 -63 120 -112 11 -21 25 -71
32 -112 9 -61 15 -75 29 -75 16 0 18 10 18 83 0 45 -3 126 -7 180 l-6 97 -394
0 -393 0 0 -25z"/>
<path d="M3040 8115 c0 -23 3 -24 68 -27 l67 -3 0 -455 0 -455 -67 -3 c-65 -3
-68 -4 -68 -27 l0 -25 384 0 383 0 7 92 c3 50 6 144 6 210 0 97 -3 118 -15
118 -8 0 -17 -12 -21 -27 -44 -200 -82 -270 -169 -316 -33 -17 -62 -22 -159
-25 -107 -4 -121 -2 -133 14 -17 23 -19 854 -3 885 9 16 22 19 85 19 73 0 75
1 75 25 l0 25 -220 0 -220 0 0 -25z"/>
<path d="M5519 8113 c-6 -15 -75 -210 -153 -433 -79 -223 -150 -419 -159 -435
-24 -48 -53 -68 -107 -73 -45 -4 -50 -7 -50 -28 l0 -24 195 0 195 0 0 25 c0
24 -3 25 -59 25 -101 0 -119 40 -76 167 l28 83 167 0 167 0 38 -106 c46 -130
44 -138 -44 -142 -57 -3 -61 -4 -61 -27 l0 -25 220 0 220 0 0 25 c0 24 -3 25
-61 25 -51 0 -64 4 -82 24 -12 14 -83 208 -176 482 -163 478 -175 506 -202
437z m60 -433 c39 -112 69 -205 67 -207 -2 -2 -69 -2 -149 -1 l-145 3 69 195
c38 107 72 201 74 209 3 8 7 12 10 10 2 -3 36 -96 74 -209z"/>
<path d="M7170 8115 c0 -23 3 -24 68 -27 l67 -3 0 -455 0 -455 -67 -3 c-65 -3
-68 -4 -68 -28 l0 -25 308 3 307 3 68 33 c122 60 217 187 253 338 21 92 14
255 -15 338 -51 144 -158 252 -290 290 -44 13 -109 16 -343 16 l-288 0 0 -25z
m593 -36 c50 -13 112 -71 142 -129 49 -97 60 -154 59 -320 0 -143 -2 -161 -28
-234 -36 -106 -85 -172 -150 -202 -46 -21 -65 -24 -188 -24 -126 0 -138 2
-148 19 -6 13 -10 170 -10 441 0 271 4 428 10 441 10 17 22 19 143 19 73 0
149 -5 170 -11z"/>
<path d="M8280 8115 c0 -23 3 -24 68 -27 l67 -3 0 -455 0 -455 -67 -3 c-65 -3
-68 -4 -68 -27 l0 -25 205 0 205 0 0 25 c0 24 -3 25 -60 25 -48 0 -61 4 -70
19 -6 13 -10 170 -10 441 0 271 4 428 10 441 9 15 22 19 70 19 57 0 60 1 60
25 l0 25 -205 0 -205 0 0 -25z"/>
<path d="M8840 8116 c0 -24 3 -25 68 -28 l67 -3 3 -428 2 -428 -29 -30 c-23
-23 -38 -29 -70 -29 -37 0 -41 -2 -41 -25 l0 -25 170 0 170 0 0 25 c0 22 -4
25 -38 25 -45 0 -75 19 -91 57 -8 20 -11 133 -9 388 l3 360 278 -437 c263
-414 280 -438 308 -438 l29 0 0 450 c0 480 2 504 48 529 12 6 37 11 56 11 32
0 36 3 36 25 l0 25 -170 0 -170 0 0 -25 c0 -23 4 -25 41 -25 31 0 47 -6 70
-29 l29 -29 0 -338 c0 -185 -3 -335 -6 -331 -3 3 -113 178 -243 389 l-237 383
-137 3 -137 3 0 -25z"/>
<path d="M9070 6895 c-104 -30 -189 -95 -228 -177 -34 -69 -48 -185 -34 -271
17 -98 51 -164 120 -229 69 -66 123 -95 370 -195 221 -89 250 -103 297 -145
56 -48 75 -95 75 -180 -1 -115 -47 -195 -144 -246 -46 -24 -61 -27 -161 -27
-101 0 -114 2 -164 28 -162 83 -289 264 -337 477 -18 82 -24 95 -42 98 -21 3
-22 0 -22 -95 0 -54 3 -203 7 -330 6 -233 6 -233 29 -233 19 0 23 7 29 53 15
120 39 136 121 80 197 -135 303 -168 453 -143 190 32 315 152 351 338 34 169
-44 339 -193 426 -25 15 -153 70 -284 122 -267 106 -331 143 -364 211 -32 66
-24 187 17 262 66 123 223 164 369 97 70 -32 184 -144 235 -230 19 -33 49
-103 67 -155 25 -76 36 -97 53 -99 19 -3 20 1 19 135 -1 76 -4 199 -8 273 l-6
135 -25 0 c-22 0 -26 -5 -32 -50 -12 -85 -46 -88 -153 -15 -25 17 -76 45 -113
63 -57 27 -80 32 -157 34 -58 2 -109 -3 -145 -12z"/>
<path d="M2060 6830 l0 -30 85 0 c138 0 125 73 125 -688 0 -616 -1 -650 -18
-665 -14 -13 -39 -17 -105 -17 l-87 0 0 -30 0 -30 428 0 c332 0 438 3 477 14
193 53 343 193 428 401 43 107 60 196 60 335 1 156 -19 252 -78 375 -69 142
-166 245 -290 305 -118 58 -140 60 -602 60 l-423 0 0 -30z m912 -68 c80 -39
128 -90 174 -187 85 -177 110 -459 64 -712 -34 -192 -134 -351 -253 -404 -48
-22 -67 -24 -258 -27 -181 -3 -208 -1 -223 13 -14 15 -16 77 -16 670 l0 654
23 16 c19 14 51 16 222 13 l200 -3 67 -33z"/>
<path d="M3700 6830 l0 -30 81 0 c133 0 119 82 119 -683 0 -502 -3 -666 -12
-675 -8 -8 -45 -12 -100 -12 l-88 0 0 -30 0 -30 580 0 580 0 4 23 c3 12 8 110
11 217 3 107 8 226 12 263 l6 69 -29 -4 c-28 -3 -29 -5 -40 -83 -33 -230 -119
-372 -247 -410 -61 -18 -426 -22 -458 -5 -18 10 -19 25 -19 335 l0 325 95 0
c111 0 151 -13 187 -61 31 -41 65 -144 74 -221 6 -52 9 -58 30 -58 l24 0 0
375 0 375 -24 0 c-21 0 -24 -6 -30 -57 -12 -104 -44 -192 -86 -237 l-39 -41
-115 -5 -116 -5 0 302 c0 266 2 303 16 318 15 14 43 16 228 13 208 -3 212 -3
268 -31 114 -56 181 -181 204 -379 6 -52 9 -58 30 -58 l24 0 0 219 c0 120 -3
239 -6 265 l-7 46 -578 0 -579 0 0 -30z"/>
<path d="M5730 6830 l0 -30 83 0 c59 0 89 -5 105 -16 l22 -15 0 -654 c0 -581
-2 -655 -16 -669 -12 -12 -37 -16 -105 -16 l-89 0 0 -30 0 -30 564 0 c311 0
567 3 569 8 3 4 8 143 12 310 l7 302 -24 0 c-22 0 -25 -9 -56 -137 -60 -254
-131 -357 -279 -403 -53 -16 -93 -20 -213 -20 -142 0 -150 1 -164 22 -14 20
-16 100 -16 665 0 761 -16 683 140 683 l100 0 0 30 0 30 -320 0 -320 0 0 -30z"/>
<path d="M7810 6841 c-9 -19 -230 -636 -330 -926 -91 -265 -132 -372 -155
-407 -33 -50 -90 -78 -159 -78 -46 0 -56 -3 -61 -20 -3 -11 -3 -24 0 -30 4 -6
110 -10 291 -10 l284 0 0 30 0 30 -81 0 c-91 0 -112 8 -134 50 -23 45 -18 95
23 220 l38 115 242 3 243 2 14 -32 c34 -84 95 -273 95 -299 0 -45 -31 -59
-127 -59 l-83 0 0 -30 0 -30 325 0 325 0 0 30 0 30 -75 0 c-89 0 -127 16 -151
63 -16 29 -118 325 -372 1077 -85 250 -100 285 -119 288 -14 2 -26 -4 -33 -17z
m80 -659 c55 -159 100 -293 100 -296 0 -3 -97 -6 -215 -6 -182 0 -215 2 -215
15 0 8 48 147 107 310 72 202 109 292 115 282 4 -9 53 -146 108 -305z"/>
<path d="M9300 5145 c-57 -18 -114 -65 -143 -118 -18 -34 -22 -58 -22 -132 0
-81 3 -95 29 -143 47 -84 87 -111 297 -196 173 -71 217 -98 240 -149 78 -172
-113 -329 -297 -243 -104 48 -206 192 -234 329 -7 37 -16 57 -26 57 -12 0 -14
-30 -14 -174 0 -200 7 -266 26 -266 8 0 14 10 14 24 0 39 21 86 39 86 9 0 37
-15 64 -34 87 -62 142 -81 237 -80 98 0 138 14 200 70 56 51 82 105 88 185 7
107 -33 194 -115 248 -24 16 -121 60 -215 97 -193 75 -233 103 -249 171 -20
93 26 188 106 218 85 33 176 5 257 -78 48 -48 110 -162 123 -224 4 -22 12 -33
24 -33 17 0 18 10 14 123 -5 182 -13 247 -27 247 -7 0 -17 -17 -22 -37 -12
-52 -33 -52 -107 -4 -109 71 -189 86 -287 56z"/>
<path d="M2060 5095 c0 -23 3 -24 68 -27 l67 -3 0 -450 0 -450 -67 -3 c-65 -3
-68 -4 -68 -27 l0 -25 215 0 215 0 0 25 c0 24 -2 25 -68 25 -40 0 -73 5 -80
12 -9 9 -12 69 -12 209 l0 197 153 4 c126 4 162 8 209 27 223 87 240 364 29
470 -67 34 -136 41 -401 41 l-260 0 0 -25z m554 -39 c39 -16 79 -65 96 -120
20 -63 8 -168 -26 -223 -45 -72 -76 -83 -226 -83 l-128 0 0 208 c0 148 3 211
12 220 18 18 229 16 272 -2z"/>
<path d="M3366 5088 c-8 -18 -78 -213 -156 -432 -77 -220 -147 -411 -155 -425
-22 -44 -52 -64 -105 -69 -45 -4 -50 -7 -50 -28 l0 -24 190 0 190 0 0 25 c0
24 -3 25 -55 25 -75 0 -100 23 -92 89 3 25 16 72 28 104 l22 57 166 -2 166 -3
35 -102 c43 -127 40 -137 -49 -141 -57 -3 -61 -4 -61 -27 l0 -25 220 0 220 0
0 25 c0 24 -3 25 -54 25 -92 0 -87 -11 -256 485 -82 242 -153 446 -158 454
-16 27 -32 23 -46 -11z m57 -416 c37 -108 67 -200 67 -204 0 -5 -66 -8 -146
-8 -113 0 -145 3 -142 13 3 6 36 99 74 204 38 106 71 193 74 193 3 0 35 -89
73 -198z"/>
<path d="M4000 5095 c0 -24 3 -25 58 -25 32 0 63 -5 70 -12 17 -17 17 -869 0
-886 -7 -7 -38 -12 -70 -12 -55 0 -58 -1 -58 -25 l0 -25 379 0 378 0 7 68 c3
37 6 130 7 207 1 114 -1 141 -13 143 -11 2 -20 -21 -36 -83 -41 -169 -92 -242
-186 -270 -65 -20 -239 -20 -255 -1 -8 9 -10 136 -9 452 l3 439 78 3 c74 3 77
4 77 27 l0 25 -215 0 -215 0 0 -25z"/>
<path d="M5392 5093 c-7 -15 -77 -212 -156 -436 -80 -225 -154 -423 -165 -441
-25 -39 -58 -56 -111 -56 -36 0 -40 -3 -40 -25 l0 -25 195 0 195 0 0 25 c0 24
-3 25 -58 25 -98 0 -117 41 -74 165 l27 80 166 3 166 2 38 -106 c46 -130 44
-138 -44 -142 -57 -3 -61 -4 -61 -27 l0 -25 215 0 215 0 0 25 c0 24 -3 25 -54
25 -36 0 -61 6 -75 18 -16 12 -66 148 -179 477 -162 472 -175 501 -200 438z
m53 -413 c38 -107 70 -201 72 -207 4 -10 -29 -13 -145 -13 l-149 0 75 210 c41
116 76 209 78 208 1 -2 32 -91 69 -198z"/>
<path d="M6020 5095 c0 -23 3 -24 68 -27 l67 -3 0 -450 0 -450 -67 -3 c-65 -3
-68 -4 -68 -28 l0 -25 293 3 c290 3 292 3 347 29 76 36 119 75 146 134 28 59
31 138 9 193 -30 71 -114 140 -193 157 l-33 7 58 27 c184 88 207 297 43 400
-85 55 -128 61 -412 61 l-258 0 0 -25z m577 -61 c60 -49 78 -87 76 -169 -1
-108 -40 -174 -114 -195 -19 -6 -87 -10 -151 -10 l-118 0 0 186 c0 114 4 193
11 206 10 19 18 20 134 17 121 -4 124 -5 162 -35z m-42 -435 c50 -14 100 -64
114 -114 6 -22 11 -67 11 -100 0 -82 -16 -133 -54 -171 -42 -42 -89 -54 -213
-54 -91 0 -103 2 -113 19 -6 12 -10 103 -10 225 l0 206 113 0 c61 0 130 -5
152 -11z"/>
<path d="M7000 5095 c0 -24 3 -25 58 -25 32 0 63 -5 70 -12 17 -17 17 -869 0
-886 -7 -7 -38 -12 -70 -12 -55 0 -58 -1 -58 -25 l0 -25 215 0 215 0 0 25 c0
23 -3 24 -77 27 l-78 3 -3 233 -2 232 90 0 c63 0 100 -5 121 -16 48 -24 70
-87 80 -228 17 -221 54 -286 165 -286 87 0 124 41 143 160 14 83 14 80 -8 80
-15 0 -19 -10 -24 -56 -6 -58 -28 -94 -57 -94 -33 0 -49 35 -65 141 -29 188
-63 250 -158 294 l-48 23 35 6 c50 10 95 30 142 64 115 84 114 280 -3 349 -78
46 -135 53 -420 53 l-263 0 0 -25z m540 -47 c59 -31 80 -73 80 -161 0 -47 -6
-79 -19 -105 -40 -78 -92 -101 -233 -102 l-98 0 0 188 c0 104 3 192 7 195 3 4
54 7 113 7 90 0 112 -3 150 -22z"/>
<path d="M8456 5088 c-8 -18 -78 -213 -156 -432 -77 -220 -147 -411 -155 -425
-22 -44 -52 -64 -105 -69 -45 -4 -50 -7 -50 -28 l0 -24 190 0 190 0 0 25 c0
24 -3 25 -55 25 -75 0 -100 23 -92 89 3 25 16 72 28 104 l22 57 166 -2 166 -3
35 -102 c43 -127 40 -137 -49 -141 -57 -3 -61 -4 -61 -27 l0 -25 220 0 220 0
0 25 c0 24 -3 25 -54 25 -92 0 -87 -11 -256 485 -82 242 -153 446 -158 454
-16 27 -32 23 -46 -11z m57 -416 c37 -108 67 -200 67 -204 0 -5 -66 -8 -146
-8 -113 0 -145 3 -142 13 3 6 36 99 74 204 38 106 71 193 74 193 3 0 35 -89
73 -198z"/>
<path d="M9742 3733 c-5 -10 -29 -65 -52 -123 -56 -138 -229 -522 -242 -537
-6 -7 -19 -13 -29 -13 -12 0 -19 -7 -19 -20 0 -19 7 -20 100 -20 93 0 100 1
100 20 0 17 -7 20 -40 20 -52 0 -52 10 4 136 l44 99 124 3 124 3 42 -103 c52
-128 53 -138 7 -138 -28 0 -35 -4 -35 -20 0 -19 7 -20 120 -20 109 0 120 2
120 18 0 11 -11 21 -32 27 -36 11 -29 -5 -199 415 -59 145 -112 266 -118 268
-5 2 -14 -5 -19 -15z m48 -268 l47 -115 -102 0 -103 0 51 120 c28 66 53 118
55 115 3 -3 27 -57 52 -120z"/>
<path d="M2261 3717 c-43 -53 -59 -169 -37 -270 38 -170 152 -291 333 -354 69
-24 93 -27 203 -26 106 0 138 4 213 26 157 48 297 128 512 291 134 103 183
126 259 126 95 0 97 -11 16 -59 -101 -60 -202 -158 -230 -224 -21 -48 -22 -55
-9 -92 21 -59 69 -88 135 -82 68 7 126 38 194 103 91 87 139 206 112 283 l-11
31 52 15 c74 22 193 36 252 29 56 -6 155 -32 155 -40 0 -2 -16 -18 -35 -35
-43 -38 -67 -110 -55 -164 17 -74 88 -117 158 -95 95 31 138 129 97 227 -8 19
-15 37 -15 38 0 2 39 8 87 15 108 16 196 9 251 -19 67 -34 68 -91 2 -105 -51
-10 -34 -66 20 -66 56 0 107 66 95 126 -8 48 -46 88 -107 114 -45 20 -69 24
-158 23 -58 -1 -137 -7 -176 -15 -69 -14 -73 -14 -116 8 -24 12 -73 30 -109
39 -88 24 -265 16 -367 -16 l-73 -22 -42 24 c-35 20 -56 24 -122 24 -99 0
-151 -23 -286 -126 -227 -174 -382 -261 -533 -299 -199 -50 -409 -6 -526 111
-103 103 -145 259 -102 380 13 38 16 61 10 73 -11 19 -32 21 -47 3z m1637
-325 c8 -107 -144 -272 -252 -272 -37 0 -66 21 -66 49 0 27 53 103 101 145 52
45 189 128 204 123 5 -2 11 -22 13 -45z m607 8 c20 -39 19 -103 -2 -129 -24
-28 -72 -37 -98 -18 -25 19 -25 82 -1 119 13 20 65 56 83 58 1 0 9 -13 18 -30z"/>
<path d="M5320 3706 c0 -22 5 -25 43 -28 l42 -3 0 -305 0 -305 -37 -3 c-30 -3
-38 -7 -38 -23 0 -18 9 -19 258 -19 l259 0 12 68 c7 37 15 77 18 90 4 17 1 22
-15 22 -17 0 -21 -9 -27 -49 -4 -28 -14 -56 -22 -63 -12 -9 -57 -13 -162 -13
l-146 0 -3 303 -2 302 45 0 c41 0 45 2 45 25 l0 25 -135 0 -135 0 0 -24z"/>
<path d="M5950 3705 c0 -23 4 -25 45 -25 l45 0 -2 -307 -3 -308 -37 -3 c-30
-3 -38 -7 -38 -23 0 -18 8 -19 135 -19 128 0 135 1 135 20 0 16 -7 20 -37 20
-21 0 -44 4 -51 8 -9 7 -12 75 -10 308 l3 299 38 3 c32 3 37 7 37 28 l0 24
-130 0 -130 0 0 -25z"/>
<path d="M6300 3707 c0 -23 5 -26 38 -29 l37 -3 0 -305 0 -305 -37 -3 c-30 -3
-38 -7 -38 -23 0 -18 8 -19 138 -19 258 0 344 38 367 161 15 79 -46 185 -121
209 l-35 12 29 16 c74 43 102 80 102 134 0 63 -35 114 -99 145 -52 26 -66 28
-218 31 l-163 4 0 -25z m296 -46 c95 -43 113 -139 41 -218 -18 -20 -31 -23
-94 -23 l-73 0 0 123 c0 68 3 127 7 130 13 13 78 6 119 -12z m15 -308 c65 -34
93 -76 93 -142 -1 -60 -25 -104 -68 -125 -41 -19 -155 -22 -161 -3 -2 6 -5 76
-8 155 l-4 142 47 0 c31 0 64 -9 101 -27z"/>
<path d="M6894 3717 c-9 -25 4 -37 41 -37 24 0 38 -6 45 -19 11 -21 15 -557 4
-585 -4 -10 -18 -16 -40 -16 -27 0 -34 -4 -34 -20 0 -19 7 -20 145 -20 138 0
145 1 145 20 0 17 -7 20 -49 20 -84 0 -81 -6 -81 152 l0 139 62 -3 61 -3 112
-160 112 -160 76 -3 c72 -3 77 -1 77 18 0 15 -6 20 -28 20 -39 0 -46 8 -152
150 -51 69 -97 130 -102 137 -6 8 4 17 35 31 112 50 137 174 53 270 -56 64
-98 75 -298 80 -155 4 -178 2 -184 -11z m337 -60 c60 -32 89 -77 89 -139 0
-99 -51 -138 -180 -138 l-70 0 0 143 c0 79 3 147 7 150 16 17 111 6 154 -16z"/>
<path d="M7642 3708 c2 -19 10 -23 48 -26 24 -2 48 -9 52 -15 14 -21 10 -581
-4 -595 -7 -7 -27 -12 -45 -12 -26 0 -33 -4 -33 -20 0 -20 7 -20 269 -20 l269
0 5 23 c3 12 9 50 13 85 6 53 4 62 -9 62 -11 0 -18 -13 -22 -37 -12 -69 -14
-72 -58 -78 -23 -3 -98 -5 -167 -3 l-125 3 -3 150 c-2 132 -1 151 15 162 22
17 194 18 211 1 7 -7 12 -34 12 -60 0 -41 3 -48 20 -48 19 0 20 7 20 125 0
118 -1 125 -20 125 -16 0 -20 -7 -20 -34 0 -51 -15 -57 -131 -54 l-104 3 -3
95 c-5 151 -17 140 157 140 l149 0 6 -31 c3 -17 6 -44 6 -60 0 -23 5 -29 20
-29 20 0 21 5 18 83 l-3 82 -273 3 -273 2 3 -22z"/>
<path d="M8300 3706 c0 -22 5 -25 43 -28 l42 -3 0 -305 0 -305 -32 -3 c-25 -2
-33 -8 -33 -23 0 -18 8 -19 140 -19 132 0 140 1 140 20 0 16 -8 19 -57 22
l-58 3 -3 143 -3 142 59 0 58 0 114 -165 114 -165 78 0 c71 0 78 2 78 19 0 16
-8 20 -37 23 -36 3 -44 11 -145 143 -59 77 -107 143 -107 147 -1 4 20 19 47
33 64 36 85 67 89 135 5 68 -22 120 -83 163 -50 35 -123 47 -306 47 l-138 0 0
-24z m325 -45 c83 -37 121 -118 94 -195 -22 -62 -56 -80 -155 -85 l-84 -3 0
151 0 151 53 0 c29 0 70 -9 92 -19z"/>
<path d="M9050 3705 c0 -23 4 -25 45 -25 l45 0 -2 -307 -3 -308 -37 -3 c-30
-3 -38 -7 -38 -23 0 -18 8 -19 135 -19 128 0 135 1 135 20 0 16 -7 20 -37 20
-21 0 -44 4 -51 8 -9 7 -12 75 -10 308 l3 299 38 3 c32 3 37 7 37 28 l0 24
-130 0 -130 0 0 -25z"/>
</g>
</svg>
